<?xml version="1.0" standalone="no"?>
<!DOCTYPE svg PUBLIC "-//W3C//DTD SVG 20010904//EN"
 "http://www.w3.org/TR/2001/REC-SVG-20010904/DTD/svg10.dtd">
<svg version="1.0" xmlns="http://www.w3.org/2000/svg"
 width="928.000000pt" height="1280.000000pt" viewBox="0 0 928.000000 1280.000000"
 preserveAspectRatio="xMidYMid meet">
<g transform="translate(0.000000,1280.000000) scale(0.100000,-0.100000)"
fill="#000000" stroke="none">
<path d="M2037 12752 c-8 -9 -37 -55 -62 -102 -55 -99 -72 -121 -90 -113 -10
3 -19 -12 -29 -49 -44 -153 -47 -179 -41 -426 7 -262 21 -377 67 -522 24 -75
31 -115 32 -190 l1 -95 -60 -3 c-87 -3 -100 -8 -143 -51 -27 -27 -50 -41 -80
-46 -56 -9 -61 -22 -13 -30 65 -11 61 -54 -11 -103 -24 -17 -51 -38 -59 -48
-13 -16 -12 -17 4 -11 10 4 43 10 73 13 51 6 56 5 101 -30 25 -20 64 -41 84
-46 46 -13 45 -12 69 -98 24 -86 141 -320 177 -354 16 -14 47 -37 71 -52 47
-29 52 -48 20 -70 -31 -22 -15 -20 32 4 40 20 40 20 78 1 36 -18 82 -69 82
-91 0 -5 -15 -16 -32 -24 -40 -17 -17 -20 49 -6 41 9 54 8 88 -10 44 -23 66
-25 82 -9 8 8 15 6 24 -6 43 -52 60 -65 87 -65 16 0 35 -7 42 -15 7 -9 21 -13
30 -10 13 4 26 -6 47 -34 27 -39 51 -57 60 -47 8 7 -85 158 -152 249 -76 102
-109 175 -146 330 -17 66 -46 154 -64 195 -19 41 -32 78 -29 83 3 5 22 9 42 9
20 1 78 1 127 2 50 1 93 6 97 11 4 7 20 6 47 -3 32 -10 43 -11 55 0 11 9 23 9
44 2 18 -6 35 -6 43 -1 8 5 26 6 42 3 20 -4 27 -2 27 10 0 20 8 20 55 0 48
-20 56 -11 22 24 -56 59 -25 57 49 -3 70 -57 95 -58 32 -2 -27 24 -48 48 -48
54 0 27 22 21 86 -23 82 -56 133 -79 146 -66 6 6 -21 27 -71 57 -138 80 -92
103 72 35 94 -39 137 -49 137 -31 0 18 -43 41 -162 87 -65 25 -121 50 -124 56
-18 29 24 23 165 -23 116 -38 163 -49 188 -44 18 3 33 10 33 15 0 5 -33 19
-72 30 -144 42 -138 53 27 61 126 6 175 17 175 41 0 8 -24 9 -78 5 -81 -6
-114 1 -90 20 7 5 53 22 102 37 48 15 86 29 84 31 -2 3 -36 -2 -74 -10 -80
-17 -144 -19 -144 -5 0 5 24 21 53 36 58 29 217 132 217 141 0 3 -12 -3 -27
-12 -61 -40 -95 -57 -172 -85 -118 -43 -181 -38 -88 7 49 24 151 99 187 138
22 25 19 24 -33 -10 -156 -99 -294 -133 -169 -42 89 66 89 80 -2 27 -56 -33
-101 -53 -124 -54 -21 -1 -60 -14 -87 -28 -28 -14 -70 -31 -94 -38 -37 -10
-46 -9 -59 4 -14 13 -11 17 20 35 38 23 65 65 101 161 82 212 103 254 134 262
16 4 41 21 56 38 31 35 33 35 81 15 20 -8 36 -13 36 -10 0 3 -20 34 -45 71
-25 36 -45 71 -45 79 0 18 20 30 45 26 20 -3 20 -3 2 17 -23 26 -17 38 25 46
49 10 60 10 94 -4 44 -18 62 -8 86 50 29 70 48 66 48 -9 0 -51 3 -62 22 -75
27 -19 54 -21 64 -4 4 6 8 34 10 62 1 28 3 57 3 64 1 18 31 14 38 -5 24 -70
65 -140 91 -155 17 -10 33 -18 36 -18 13 0 5 55 -19 126 -31 93 -32 106 -3
102 22 -3 31 -16 118 -169 31 -54 70 -89 100 -89 34 0 -8 113 -78 209 -32 44
-31 68 1 55 16 -6 58 -58 140 -175 48 -70 109 -113 115 -83 2 8 -15 46 -38 85
-22 38 -38 74 -35 79 8 14 50 -9 117 -63 85 -70 129 -97 156 -97 l25 0 -24 26
c-13 14 -51 47 -84 72 -66 50 -87 71 -80 82 3 4 80 -16 172 -46 164 -52 228
-66 119 -25 -83 31 -296 140 -296 151 0 14 37 12 95 -5 48 -15 235 -33 225
-22 -3 2 -95 24 -205 47 -190 40 -227 52 -213 66 4 3 78 0 165 -8 87 -8 190
-12 228 -8 l70 6 -55 7 c-30 3 -113 10 -184 14 -85 5 -131 12 -133 20 -6 18
59 26 161 20 50 -3 111 -2 136 2 31 5 -17 9 -150 14 -107 4 -316 15 -465 23
-418 25 -515 12 -755 -101 -74 -35 -159 -69 -188 -75 -30 -7 -81 -31 -120 -56
-37 -25 -92 -52 -122 -60 -250 -68 -324 -108 -446 -235 -69 -73 -180 -229
-224 -315 -37 -73 -53 -94 -73 -94 -17 0 -29 24 -21 43 3 8 -2 20 -11 27 -8 7
-15 18 -15 25 0 7 -7 25 -15 41 -21 41 -4 51 39 24 27 -16 36 -18 36 -8 0 20
-38 53 -82 72 -52 21 -51 46 2 46 35 0 40 3 40 23 0 36 -23 59 -66 66 -56 9
-52 33 8 44 52 10 65 28 49 70 -7 19 -18 26 -42 29 -18 2 -34 8 -36 15 -2 6
19 37 46 67 50 55 65 96 40 112 -6 3 -22 1 -35 -7 -55 -29 -42 17 26 95 28 32
50 59 50 62 0 13 -26 -1 -64 -36 -43 -40 -66 -50 -66 -29 0 19 58 121 99 176
47 62 65 93 53 93 -11 0 -75 -69 -122 -132 -51 -69 -84 -78 -59 -16 15 38 95
160 152 233 26 33 35 51 26 54 -13 4 -42 -26 -133 -133 -47 -56 -74 -68 -68
-30 2 10 30 75 63 143 32 68 59 127 59 132 0 14 -16 10 -33 -9z m693 -861 c0
-10 -7 -34 -14 -53 -8 -19 -22 -78 -30 -131 -22 -134 -72 -215 -189 -304 -34
-25 -85 -67 -112 -92 -28 -25 -70 -63 -95 -84 l-45 -38 -42 47 c-45 48 -52 64
-29 64 27 0 24 25 -7 57 -29 31 -30 34 -16 60 17 33 218 253 285 312 82 72
250 180 282 181 6 0 12 -8 12 -19z m-410 -716 c0 -8 -9 -15 -20 -15 -13 0 -18
5 -14 15 4 8 12 15 20 15 8 0 14 -7 14 -15z m714 -136 c30 -23 33 -34 11 -43
-19 -7 -71 37 -61 52 10 17 19 15 50 -9z m56 17 c0 -3 -4 -8 -10 -11 -5 -3
-10 -1 -10 4 0 6 5 11 10 11 6 0 10 -2 10 -4z m-180 -71 c7 -9 10 -18 7 -21
-10 -11 -37 5 -37 21 0 19 14 19 30 0z"/>
<path d="M6786 10424 c-53 -52 -84 -412 -56 -634 6 -46 6 -86 1 -105 -5 -16
-12 -42 -15 -57 -7 -29 -26 -38 -130 -58 -68 -14 -136 -41 -186 -75 -22 -14
-97 -38 -205 -63 -451 -107 -853 -361 -1129 -712 -270 -342 -422 -728 -481
-1221 -21 -172 -35 -867 -25 -1229 4 -154 3 -273 -2 -283 -5 -10 -8 -34 -6
-55 4 -53 62 -91 139 -92 73 0 83 -11 77 -93 -7 -108 -72 -210 -117 -182 -6 3
-11 31 -11 61 0 45 -4 59 -25 79 -22 22 -33 25 -107 26 -46 0 -99 6 -118 12
-36 13 -40 25 -25 75 13 39 -16 25 -70 -33 -50 -54 -90 -71 -100 -42 -5 11 31
119 69 209 19 45 21 91 4 86 -7 -3 -47 -70 -89 -149 -68 -129 -97 -167 -112
-142 -8 12 16 115 63 270 25 83 40 150 35 160 -6 17 -7 17 -20 0 -7 -11 -26
-49 -41 -85 -50 -124 -103 -232 -114 -232 -21 0 -23 37 -11 208 9 118 10 177
3 184 -16 16 -30 -20 -47 -119 -20 -112 -51 -233 -63 -245 -15 -15 -32 0 -32
28 0 14 -4 23 -8 20 -5 -3 -7 -41 -4 -84 7 -119 -12 -139 -110 -112 -23 7 -68
7 -122 2 -47 -4 -118 -4 -158 0 -40 5 -138 10 -218 11 -100 1 -152 6 -169 15
-19 11 -32 12 -66 2 -48 -13 -145 -6 -207 15 -22 7 -66 10 -110 8 -41 -3 -93
1 -118 7 -68 19 -239 15 -259 -5 -14 -13 -16 -49 -18 -228 -1 -117 -3 -261 -4
-322 -1 -60 1 -362 4 -670 6 -560 0 -711 -27 -684 -3 2 -8 75 -12 162 -6 142
-9 157 -25 157 -10 0 -20 -4 -23 -8 -8 -14 -10 -857 -2 -870 4 -7 25 -11 49
-10 40 3 41 2 47 -32 4 -19 11 -44 18 -56 16 -29 148 -66 232 -65 36 1 92 -6
125 -14 33 -9 112 -17 175 -19 63 -2 128 -8 144 -15 18 -7 56 -9 105 -5 42 3
107 0 146 -6 39 -6 142 -12 230 -14 106 -1 168 -6 183 -14 17 -10 31 -10 61
-1 25 7 78 9 157 5 145 -8 149 -8 302 0 86 4 131 3 152 -6 21 -9 38 -9 62 -2
50 15 151 22 168 12 22 -14 26 -1236 4 -1321 -7 -31 -14 -75 -14 -97 0 -55
-13 -85 -44 -101 -15 -8 -37 -37 -51 -67 -14 -30 -34 -58 -45 -64 -11 -6 -38
-37 -60 -70 -33 -49 -40 -67 -40 -107 0 -73 48 -147 124 -193 33 -20 63 -43
67 -51 4 -8 15 -49 24 -92 13 -61 15 -100 10 -182 -8 -107 10 -282 25 -254 4
8 10 55 14 106 4 51 13 114 21 140 8 26 15 84 15 128 0 105 6 114 62 95 39
-14 43 -18 50 -59 4 -24 19 -79 34 -123 l27 -78 -22 -56 c-26 -69 -27 -120 -1
-204 11 -36 20 -77 20 -92 0 -16 5 -28 11 -28 8 0 9 32 4 114 l-7 114 37 67
c35 62 37 71 32 128 -3 34 -1 81 5 105 9 38 13 42 42 42 55 -1 258 -47 267
-61 5 -8 9 -25 9 -37 0 -13 14 -57 30 -99 17 -41 30 -82 30 -91 0 -9 -12 -42
-26 -72 -34 -70 -34 -119 0 -197 14 -34 26 -74 26 -88 0 -15 4 -24 10 -20 13
8 12 58 -4 125 -16 69 -9 102 37 169 41 59 43 74 25 198 -8 58 -9 86 -1 94 7
7 44 6 124 -5 63 -8 168 -20 234 -26 66 -7 124 -15 128 -20 5 -4 13 -27 18
-51 6 -23 24 -74 40 -112 l31 -69 -36 -69 c-44 -84 -45 -119 -7 -201 17 -35
33 -76 38 -93 l7 -30 4 35 c2 19 -4 63 -13 98 -21 75 -15 111 25 162 57 72 63
99 44 199 -26 132 -35 125 169 116 472 -21 431 -17 439 -45 17 -58 37 -118 54
-163 l19 -48 -33 -62 c-49 -93 -50 -118 -8 -207 26 -54 36 -67 36 -48 0 14 -7
45 -16 69 -20 58 -13 96 30 159 44 64 50 86 42 153 -20 168 -20 165 0 170 11
2 156 4 323 3 l304 -1 34 -109 35 -109 -27 -63 c-42 -98 -43 -131 -6 -210 17
-36 31 -76 31 -87 0 -16 3 -18 12 -9 9 9 7 26 -5 72 -26 93 -23 125 24 202
l42 69 -8 92 c-11 123 -10 148 4 156 6 4 107 13 224 20 117 7 238 15 269 18
l57 5 11 -43 c6 -24 19 -73 30 -108 18 -63 18 -65 -1 -125 -26 -84 -24 -150 6
-224 14 -34 25 -73 25 -87 0 -17 4 -24 11 -19 11 6 10 27 -7 160 -6 45 -2 61
30 132 36 79 37 84 35 197 0 64 2 119 6 123 13 14 370 60 383 49 7 -5 12 -32
12 -61 0 -64 9 -96 25 -96 21 0 23 -21 13 -117 -8 -76 -7 -102 7 -155 10 -35
21 -80 25 -101 14 -72 21 -51 19 64 -2 96 2 130 24 214 20 73 27 123 27 191 0
63 4 95 13 101 14 9 144 42 170 43 33 0 48 -60 51 -213 3 -130 9 -172 44 -307
5 -17 7 -6 9 35 3 77 22 282 29 318 7 35 35 33 45 -3 4 -14 8 -68 8 -120 2
-108 14 -105 29 7 7 47 7 99 1 149 -8 63 -7 91 8 152 l17 74 72 49 c77 51 96
81 109 171 9 60 -9 98 -80 168 -30 30 -55 63 -55 74 0 11 -21 41 -46 67 -44
45 -46 49 -62 145 -11 71 -15 172 -16 359 0 709 15 3177 22 3515 5 212 8 702
7 1090 -1 750 -5 829 -55 1088 -169 875 -749 1504 -1569 1703 -91 22 -177 49
-191 58 -55 39 -117 64 -203 81 -49 10 -95 24 -103 32 -13 13 -35 92 -37 133
0 11 5 64 11 117 28 229 5 524 -45 573 -18 19 -28 19 -47 -1z m46 -81 c6 -16
13 -113 16 -229 6 -285 -16 -423 -61 -385 -21 16 -28 90 -28 274 0 274 34 433
73 340z m-64 -928 c5 -9 3 -48 -5 -93 -45 -261 -83 -821 -99 -1445 l-7 -268
-73 -114 c-41 -63 -80 -131 -89 -151 -44 -105 -52 17 -36 518 25 731 84 1223
171 1414 58 127 113 183 138 139z m136 -7 c51 -83 102 -390 130 -793 27 -385
28 -419 12 -440 -10 -13 -18 -17 -24 -10 -5 6 -15 96 -21 200 -18 298 -66 744
-78 731 -2 -2 5 -113 16 -247 28 -334 31 -617 7 -729 -19 -92 -40 -150 -53
-150 -4 0 -8 62 -9 138 0 171 -18 232 -21 74 -3 -114 -12 -163 -31 -170 -9 -3
-12 39 -12 167 0 146 2 171 16 179 15 8 15 13 0 65 -14 47 -16 119 -16 491 0
425 0 436 20 448 11 7 20 22 20 34 0 39 22 45 44 12z m122 -33 c36 -28 68 -65
87 -98 92 -167 171 -458 216 -802 26 -197 54 -551 46 -583 -12 -47 -24 -7 -40
138 -52 460 -133 839 -233 1091 -35 88 -96 202 -129 242 -23 29 -30 57 -14 57
5 0 35 -20 67 -45z m-396 -1 c0 -4 -27 -90 -60 -193 -74 -232 -110 -379 -149
-608 -54 -317 -82 -595 -101 -978 -6 -126 -13 -240 -16 -252 -6 -29 -44 -32
-44 -4 0 19 -18 31 -46 31 -9 0 -31 12 -51 27 l-35 27 6 181 c23 614 96 1124
196 1364 59 145 159 303 233 374 36 33 67 48 67 31z m546 -40 c176 -117 308
-367 404 -764 41 -173 70 -346 77 -465 7 -134 -9 -117 -41 45 -104 521 -249
883 -447 1119 -32 38 -59 75 -59 80 0 18 25 12 66 -15z m-796 -12 c0 -13 -23
-32 -39 -32 -11 0 -10 4 4 20 19 21 35 26 35 12z m644 -70 c131 -260 233 -762
281 -1372 31 -410 45 -1066 23 -1088 -22 -22 -91 -14 -139 16 -86 55 -79 11
-79 492 0 298 3 431 11 436 8 4 8 9 0 17 -25 25 -12 65 33 102 43 35 64 65 46
65 -4 0 -22 -11 -38 -25 -64 -54 -72 -9 -12 66 48 61 55 97 11 55 -34 -33 -61
-29 -61 8 0 13 13 53 30 88 40 85 41 126 0 76 l-17 -22 -12 23 c-7 13 -12 55
-11 99 2 74 -26 398 -50 586 -15 120 -37 244 -60 344 -24 100 -24 102 -5 102
8 0 30 -30 49 -68z m-804 41 c0 -10 -32 -43 -42 -43 -15 0 -8 29 10 39 20 12
32 14 32 4z m1166 -34 c181 -128 300 -308 420 -636 67 -186 133 -493 106 -493
-6 0 -19 26 -28 58 -137 486 -281 768 -527 1029 -51 55 -64 83 -38 83 4 0 34
-19 67 -41z m-966 17 c0 -3 -20 -45 -45 -94 -61 -124 -196 -518 -244 -714 -76
-311 -103 -487 -147 -965 -5 -61 -7 -64 -56 -103 -87 -69 -109 -48 -28 27 54
49 56 68 6 60 -17 -3 -40 -7 -51 -9 -19 -3 -20 2 -18 152 7 408 94 908 199
1142 77 171 236 407 321 477 33 27 63 39 63 27z m1243 -139 c178 -150 320
-385 433 -721 19 -55 34 -110 34 -123 0 -25 -14 -31 -23 -10 -3 6 -28 67 -56
135 -64 155 -98 222 -174 347 -75 123 -176 256 -274 356 -40 42 -73 82 -73 88
0 27 42 5 133 -72z m-1526 -36 c-54 -87 -104 -199 -195 -441 -122 -324 -178
-535 -228 -853 -14 -89 -29 -166 -33 -170 -5 -5 -23 -1 -40 7 -18 10 -41 14
-55 10 -13 -3 -26 -2 -29 3 -3 5 -1 56 4 114 21 227 66 477 120 664 63 219
225 492 397 667 89 91 115 91 59 -1z m1689 3 c142 -107 274 -280 389 -514 56
-112 74 -165 55 -158 -7 2 -18 15 -26 28 -167 295 -244 405 -393 559 -56 57
-101 108 -101 112 0 18 29 8 76 -27z m-499 -141 c217 -455 342 -1197 331
-1963 l-3 -225 -94 1 c-75 1 -96 4 -106 17 -9 12 -14 151 -18 524 -3 280 -11
578 -17 663 -29 415 -80 742 -160 1007 -48 160 -15 148 67 -24z m-1417 89 c0
-5 -22 -44 -48 -88 -53 -87 -95 -173 -152 -309 -21 -49 -56 -135 -79 -189 -82
-195 -158 -461 -196 -681 -10 -55 -22 -109 -28 -119 -9 -18 -11 -18 -22 -3 -7
10 -18 52 -25 94 -6 42 -17 87 -23 100 -13 30 2 136 48 321 66 265 123 395
263 597 117 168 262 322 262 277z m2199 -109 c93 -93 235 -292 229 -321 -3
-12 -12 -5 -36 28 -58 82 -166 214 -234 286 -65 67 -81 94 -57 94 6 0 50 -39
98 -87z m-2468 -41 c-119 -167 -340 -673 -408 -932 -12 -49 -34 -44 -57 15
-26 67 -24 94 17 227 74 240 146 376 313 589 96 123 147 172 152 146 2 -9 -6
-30 -17 -45z m1119 -90 c0 -237 -11 -422 -26 -422 -7 0 -15 8 -19 19 -6 20 11
427 21 503 12 88 24 38 24 -100z m847 -8 c147 -277 255 -653 313 -1079 28
-214 39 -372 47 -681 6 -265 6 -272 -14 -282 -25 -14 -157 -4 -181 14 -16 11
-18 53 -24 501 -6 484 -17 673 -54 923 -30 208 -83 435 -139 600 -49 145 -23
148 52 4z m-2203 -3 c3 -4 -9 -30 -26 -57 -51 -79 -215 -415 -263 -537 -24
-61 -50 -113 -58 -115 -8 -2 -22 9 -32 24 -16 25 -16 29 10 108 59 174 180
387 306 536 42 50 53 57 63 41z m2516 -209 c218 -446 318 -946 321 -1591 1
-276 1 -276 -55 -266 -16 3 -45 5 -65 5 -21 0 -46 6 -57 14 -18 14 -19 35 -25
478 -10 702 -51 999 -198 1418 -54 157 -9 124 79 -58z m-2866 -190 c-52 -108
-100 -208 -107 -222 -18 -36 -42 -33 -41 5 3 59 145 339 204 403 49 52 33 0
-56 -186z m3131 52 c136 -273 216 -553 271 -944 19 -136 31 -705 17 -760 l-10
-35 -64 3 c-37 1 -69 8 -77 16 -11 10 -14 94 -17 412 -5 620 -44 919 -166
1287 -27 81 -49 152 -49 158 0 35 34 -14 95 -137z m218 -81 c176 -336 277
-817 276 -1313 0 -243 -9 -358 -28 -369 -13 -9 -87 2 -99 14 -4 3 -10 187 -14
408 -3 221 -11 454 -18 517 -25 254 -71 481 -136 677 -19 56 -34 109 -34 117
0 32 19 14 53 -51z m-1657 -37 c10 -39 -3 -549 -15 -578 -6 -16 -16 -28 -22
-28 -8 0 -10 80 -6 304 2 167 8 309 11 315 12 18 25 12 32 -13z m1887 -163
c21 -40 93 -265 116 -358 28 -114 58 -309 72 -456 12 -135 8 -650 -6 -681 -8
-21 -45 -24 -63 -6 -8 8 -12 63 -12 183 0 224 -17 634 -30 760 -16 147 -46
314 -80 449 -16 65 -30 122 -30 127 0 19 20 8 33 -18z m-2209 -95 c-1 -23 -5
-213 -9 -421 -9 -395 -12 -419 -51 -386 -14 11 -15 32 -10 148 26 555 44 747
65 713 3 -6 5 -30 5 -54z m-1526 -15 c5 -32 -24 -93 -44 -93 -13 0 -16 7 -11
33 13 77 47 114 55 60z m126 -34 c10 -51 7 -86 -8 -98 -11 -10 -17 -7 -30 11
-18 26 -20 55 -6 92 13 36 36 33 44 -5z m2026 11 c0 -5 -4 -10 -10 -10 -5 0
-10 5 -10 10 0 6 5 10 10 10 6 0 10 -4 10 -10z m-1876 -149 c20 -86 20 -91 1
-91 -22 0 -55 59 -55 97 0 88 34 84 54 -6z m1886 29 c0 -11 -7 -20 -15 -20
-15 0 -21 21 -8 33 12 13 23 7 23 -13z m-967 -243 c-6 -220 -14 -255 -46 -222
-13 13 -16 28 -12 68 3 29 10 108 16 177 24 276 50 262 42 -23z m-1259 162
c-2 -39 -36 -159 -45 -159 -5 0 -9 3 -9 8 0 11 20 135 25 160 7 30 30 23 29
-9z m2226 -19 c0 -21 -15 -27 -25 -10 -7 12 2 30 16 30 5 0 9 -9 9 -20z m-70
-74 c0 -21 -57 -69 -75 -62 -20 7 -7 35 31 65 27 21 44 20 44 -3z m1888 -71
c41 -177 53 -344 50 -698 -2 -179 -6 -329 -11 -333 -4 -4 -13 -2 -20 5 -9 9
-12 84 -14 284 -2 299 -9 506 -23 637 -19 180 -20 200 -12 200 5 0 18 -43 30
-95z m-3093 75 c4 -6 3 -44 0 -85 -7 -66 -10 -75 -27 -75 -19 0 -20 4 -14 63
12 101 22 127 41 97z m1282 -16 c8 -21 -13 -42 -28 -27 -13 13 -5 43 11 43 6
0 13 -7 17 -16z m-76 -117 c0 -34 2 -185 5 -336 4 -179 2 -277 -5 -284 -16
-16 -170 52 -177 78 -4 18 0 197 6 267 1 9 8 22 16 29 9 8 11 15 5 19 -6 3
-13 27 -16 52 -5 42 -3 49 20 64 14 9 25 21 25 27 0 5 11 34 25 63 25 53 70
98 87 88 5 -3 9 -34 9 -67z m77 -23 c4 -82 -11 -576 -15 -514 -10 136 -19 528
-13 541 5 8 5 21 0 29 -10 17 -3 33 13 27 6 -2 13 -37 15 -83z m-2122 32 c3
-8 -1 -72 -10 -143 -8 -70 -17 -164 -21 -208 -7 -93 -13 -117 -26 -110 -5 4
-9 48 -9 98 0 104 18 355 26 368 8 14 34 10 40 -5z m722 -133 c-3 -38 -21 -55
-31 -28 -8 19 9 65 23 65 7 0 10 -15 8 -37z m-665 -703 c-7 -62 -11 -75 -27
-78 -18 -4 -18 7 -13 315 5 287 15 427 35 457 10 15 14 -602 5 -694z m121 658
c11 -19 12 -41 4 -113 -5 -49 -12 -207 -16 -350 -6 -221 -9 -260 -22 -260 -23
0 -28 63 -29 350 -1 321 5 395 30 395 10 0 25 -10 33 -22z m632 -65 c-10 -10
-19 5 -10 18 6 11 8 11 12 0 2 -7 1 -15 -2 -18z m306 5 c-7 -7 -12 -8 -12 -2
0 14 12 26 19 19 2 -3 -1 -11 -7 -17z m-837 -330 c0 -318 -3 -339 -41 -324
-16 6 -16 30 -11 304 2 163 8 305 12 315 4 10 15 17 24 15 14 -3 16 -35 16
-310z m118 194 l27 -28 -8 -239 -7 -240 -30 0 c-29 0 -30 2 -37 55 -8 74 -10
465 -1 473 12 13 29 7 56 -21z m132 -112 c17 -18 18 -35 12 -192 -6 -178 -15
-209 -51 -195 -14 6 -16 32 -16 191 0 101 3 191 6 200 8 22 27 20 49 -4z
m1265 -21 c0 -26 -3 -30 -22 -27 -29 4 -36 37 -13 55 24 17 35 8 35 -28z
m-1135 -52 l40 -23 0 -139 0 -140 -40 -3 c-60 -5 -65 8 -65 173 0 78 3 145 7
148 9 10 14 9 58 -16z m-795 -241 c-12 -12 -14 115 -2 190 6 41 7 29 10 -65 2
-69 -1 -118 -8 -125z m944 168 c13 -5 16 -22 15 -88 -1 -98 -9 -130 -33 -134
-28 -6 -36 16 -36 103 0 119 8 137 54 119z m139 -60 c58 -30 67 -43 67 -99 0
-58 -7 -65 -64 -65 -50 0 -63 17 -70 93 -4 37 -4 72 -1 77 9 14 32 12 68 -6z
m158 -120 c10 -13 10 -17 -1 -24 -18 -11 -30 -3 -30 21 0 23 13 25 31 3z m-93
-176 c-3 -81 -5 -93 -20 -92 -23 2 -22 -3 3 -68 33 -88 -2 -135 -84 -111 l-32
9 1 161 c0 116 4 166 14 178 8 10 30 15 67 15 l54 0 -3 -92z m1686 86 c22 -8
23 -104 2 -104 -17 0 -177 67 -190 80 -20 20 9 30 89 30 46 0 90 -3 99 -6z
m-2004 -19 c16 -20 6 -290 -11 -311 -12 -15 -46 -18 -73 -8 -14 5 -16 28 -16
150 0 131 2 146 20 164 24 24 63 26 80 5z m120 -11 c6 -14 10 -91 10 -170 l0
-145 -27 3 c-27 3 -28 6 -34 68 -9 88 -10 235 -3 254 10 25 43 19 54 -10z
m2197 5 c14 -12 15 -32 9 -159 -4 -92 -11 -149 -19 -157 -7 -6 -40 -14 -73
-18 -56 -6 -63 -5 -77 15 -8 11 -21 20 -28 18 -11 -2 -15 24 -17 133 -1 79 2
148 8 164 l11 28 84 -6 c50 -3 92 -10 102 -18z m-2608 -8 c11 -7 13 -34 9
-136 -6 -141 -16 -167 -58 -145 -23 12 -23 15 -17 139 6 102 10 128 24 139 20
14 24 15 42 3z m125 1 c8 -14 19 -240 12 -267 -5 -20 -12 -26 -28 -23 -30 4
-36 31 -37 176 l-1 122 24 0 c14 0 27 -3 30 -8z m2749 -8 c17 -6 19 -18 15
-140 -2 -85 -7 -137 -15 -145 -7 -7 -45 -12 -95 -13 l-83 -1 0 140 c0 77 3
149 8 159 7 17 15 18 80 13 39 -3 80 -9 90 -13z m-3002 -39 c4 -16 7 -72 8
-123 1 -76 -2 -94 -15 -99 -30 -11 -39 16 -43 138 l-3 121 23 -4 c17 -2 26
-11 30 -33z m3231 14 c20 -11 33 -114 23 -188 -8 -58 -19 -64 -110 -65 l-49
-1 -8 50 c-10 60 0 195 15 213 11 14 96 8 129 -9z m-3344 -35 c2 -21 1 -72 -3
-111 -6 -65 -9 -73 -27 -73 -20 0 -21 3 -15 106 4 58 10 110 13 115 12 20 29
1 32 -37z m-115 19 c3 -5 8 -47 12 -95 6 -77 5 -89 -9 -94 -9 -4 -20 -4 -23 0
-8 7 -20 170 -15 186 4 12 29 13 35 3z m3661 -13 c5 -5 12 -48 14 -95 4 -84 4
-85 -22 -95 -32 -12 -83 -13 -90 -2 -2 4 -8 47 -12 95 -8 107 0 122 61 112 22
-3 44 -10 49 -15z m157 -48 c25 -66 -7 -142 -48 -116 -22 13 -32 132 -12 144
20 13 50 -2 60 -28z m109 -37 c0 -8 -4 -15 -9 -15 -13 0 -22 16 -14 24 11 11
23 6 23 -9z m-1690 -40 c19 -14 42 -25 51 -25 40 0 49 -11 49 -60 0 -61 -13
-71 -99 -78 -115 -8 -117 -6 -120 88 -1 75 0 81 21 90 38 15 62 11 98 -15z
m-595 -75 c0 -73 0 -74 -30 -82 -16 -4 -58 -5 -93 -1 l-63 6 3 55 c3 52 6 57
37 76 40 23 98 35 126 26 18 -6 20 -16 20 -80z m989 84 c23 -9 20 -36 -11 -99
-29 -59 -45 -69 -104 -63 -32 3 -34 5 -31 38 1 19 7 52 13 73 9 34 13 37 44
37 19 0 37 5 40 10 7 11 26 13 49 4z m-636 -26 c-4 -29 -38 -38 -38 -10 0 22
8 32 27 32 9 0 13 -8 11 -22z m-156 -43 c-12 -76 -29 -104 -52 -90 -14 9 -13
88 2 103 20 20 54 11 50 -13z m102 17 c3 -5 8 -31 11 -59 6 -41 4 -51 -9 -56
-24 -9 -38 -1 -70 45 l-29 41 22 19 c24 18 66 24 75 10z m-200 -18 c9 -23 7
-67 -3 -83 -8 -13 -12 -13 -26 -1 -12 10 -15 23 -10 49 10 54 26 68 39 35z
m2192 -48 c12 -48 0 -404 -14 -418 -27 -27 -33 14 -29 212 2 107 7 203 12 213
10 24 24 21 31 -7z m-106 -170 c0 -192 -7 -236 -37 -236 -46 1 -48 9 -47 198
1 199 7 222 54 222 l30 0 0 -184z m-3812 124 c4 -48 -20 -172 -34 -177 -17 -6
-25 38 -18 109 8 96 12 110 32 106 11 -2 18 -14 20 -38z m3660 -113 c1 -81 -1
-162 -6 -180 -8 -31 -11 -32 -56 -31 -29 0 -51 6 -57 15 -15 21 -5 304 10 323
14 16 43 24 81 22 l25 -1 3 -148z m-3565 77 c4 -32 6 -88 5 -124 -3 -59 -5
-65 -25 -68 -23 -3 -23 -2 -23 121 0 68 3 127 7 131 16 16 29 -5 36 -60z m125
-40 c2 -72 0 -94 -13 -104 -33 -27 -45 -5 -45 80 0 88 12 123 38 118 14 -3 17
-18 20 -94z m110 73 c6 -7 14 -50 18 -95 8 -91 1 -102 -49 -83 -26 10 -27 13
-27 94 0 46 3 87 7 90 11 11 40 8 51 -6z m3138 -34 c9 -64 -3 -245 -19 -259
-13 -13 -123 -2 -138 13 -13 13 -22 181 -12 233 10 50 23 57 110 59 l52 1 7
-47z m-2992 10 c9 -24 -4 -205 -17 -220 -5 -7 -18 -13 -28 -13 -17 0 -19 9
-19 103 0 126 5 147 35 147 13 0 26 -8 29 -17z m146 -4 c10 -16 22 -183 14
-203 -9 -22 -89 -23 -98 0 -9 23 -7 209 2 218 10 11 74 -1 82 -15z m2602 -17
c5 -18 7 -76 6 -130 -3 -111 0 -108 -105 -97 -90 10 -94 16 -91 143 l3 107 30
6 c17 4 57 6 89 6 59 -2 60 -3 68 -35z m-2464 -38 c2 -28 -1 -73 -5 -100 -8
-43 -11 -49 -33 -49 -25 0 -25 0 -22 90 3 108 5 117 34 113 20 -3 23 -10 26
-54z m159 44 c34 -54 46 -181 17 -192 -28 -11 -91 -6 -103 8 -13 15 -27 157
-18 180 8 20 92 22 104 4z m2027 -4 c9 -24 7 -202 -3 -208 -4 -3 -45 -3 -91 1
-56 4 -83 10 -87 20 -3 8 16 34 48 65 50 46 43 46 -26 2 -13 -9 -29 -13 -35
-9 -5 3 -10 35 -10 70 0 74 -3 72 116 74 66 1 83 -2 88 -15z m-426 -16 c4 -19
-54 -88 -74 -88 -15 0 -20 66 -6 86 18 27 75 29 80 2z m110 10 c7 -7 12 -26
12 -44 0 -27 -10 -41 -57 -83 -31 -28 -63 -51 -70 -51 -15 0 -18 36 -3 45 6 4
22 30 36 58 27 52 52 87 64 87 3 0 11 -5 18 -12z m-1006 -21 c5 -6 7 -30 6
-51 l-3 -39 -69 -19 c-68 -18 -96 -18 -96 1 0 5 21 37 46 71 43 58 48 62 77
56 17 -3 35 -12 39 -19z m236 7 c12 -8 22 -10 22 -5 0 6 11 11 25 11 37 0 57
-38 53 -102 l-3 -53 -75 -3 c-100 -4 -111 5 -113 88 -2 64 -2 64 28 71 17 4
32 7 35 8 3 0 16 -6 28 -15z m432 7 c22 -6 25 -13 28 -64 2 -45 0 -59 -13 -63
-9 -4 -21 -2 -27 4 -9 9 -17 3 -30 -19 -19 -30 -21 -31 -71 -25 -28 4 -57 12
-64 18 -14 11 -19 139 -6 151 8 9 150 7 183 -2z m-2476 -97 c5 -66 4 -100 -4
-108 -20 -20 -31 16 -26 84 3 36 6 77 6 93 0 15 4 27 9 27 4 0 11 -43 15 -96z
m1908 21 c-4 -62 -13 -82 -31 -71 -12 8 -15 118 -4 130 4 4 14 5 23 4 12 -3
14 -15 12 -63z m-672 16 c27 -52 -2 -133 -36 -99 -12 11 -14 27 -8 66 7 55 25
68 44 33z m-795 -142 c15 -15 -68 -165 -85 -154 -6 3 -10 37 -10 75 0 60 3 71
22 84 22 16 53 13 73 -5z m1350 -19 c0 -17 -117 -53 -141 -43 -24 9 -10 27 37
45 52 21 104 20 104 -2z m353 8 c7 -7 12 -43 12 -89 l0 -78 -54 -37 c-29 -21
-62 -51 -72 -66 -14 -21 -26 -28 -44 -26 -23 3 -26 8 -33 72 -8 77 -3 86 46
86 35 0 27 16 -12 25 -35 7 -44 26 -35 72 4 22 14 38 28 43 32 13 150 12 164
-2z m242 -8 c0 -41 -56 -97 -86 -86 -17 7 -19 67 -2 84 15 15 88 16 88 2z
m-1255 -193 c0 -210 1 -207 -71 -207 -65 0 -67 7 -62 199 4 199 6 203 82 199
l51 -3 0 -188z m118 133 c4 -30 6 -118 5 -195 l-3 -140 -25 0 c-23 0 -26 5
-32 55 -9 76 -10 325 -1 334 4 4 16 6 27 4 17 -2 22 -14 29 -58z m-433 35 c16
-19 7 -304 -10 -336 -15 -28 -75 -26 -91 3 -14 26 -3 306 12 325 9 10 30 17
65 22 6 0 17 -6 24 -14z m122 -30 c4 -22 7 -101 7 -176 1 -112 -2 -139 -15
-149 -12 -11 -18 -10 -31 3 -13 13 -17 46 -21 176 -3 88 -2 167 2 176 3 10 15
15 28 13 18 -2 24 -12 30 -43z m-682 18 c0 -25 -89 -163 -106 -163 -8 0 -14 5
-14 11 0 26 24 145 31 154 4 6 26 11 48 12 32 2 41 -1 41 -14z m1105 -30 c15
-27 46 -73 69 -103 40 -55 41 -55 38 -135 -2 -43 -8 -85 -14 -92 -6 -8 -34
-13 -74 -13 -88 0 -89 3 -81 208 9 207 14 219 62 135z m1770 -130 c0 -118 -4
-176 -12 -184 -6 -6 -52 -14 -102 -17 l-90 -5 -7 27 c-3 15 -2 38 4 50 6 14 6
28 1 39 -17 29 7 57 46 57 47 0 45 18 -2 22 -31 2 -39 7 -41 26 -2 12 3 24 10
26 7 2 32 9 56 15 54 15 46 30 -12 24 -48 -6 -61 5 -52 41 8 33 68 55 141 53
l60 -2 0 -172z m-2482 152 c4 -8 9 -76 13 -152 5 -109 3 -142 -8 -156 -17 -22
-44 -14 -52 16 -8 30 -8 292 1 300 12 12 41 7 46 -8z m2750 -7 c14 -7 17 -23
16 -106 0 -99 -11 -197 -21 -208 -4 -3 -43 -8 -88 -11 -64 -5 -84 -3 -91 8
-21 33 -3 314 21 330 17 11 136 1 163 -13z m-3323 -52 c0 -33 -7 -62 -20 -83
-24 -39 -37 -42 -46 -8 -4 15 -13 25 -24 25 -23 0 -29 15 -23 60 7 55 8 56 62
57 l51 1 0 -52z m1828 22 c-2 -13 -10 -23 -18 -23 -8 0 -16 10 -18 23 -3 17 2
22 18 22 16 0 21 -5 18 -22z m1729 -1 c21 -20 22 -232 2 -252 -8 -7 -42 -17
-76 -21 -57 -6 -62 -5 -73 16 -14 26 -10 246 4 269 11 18 123 9 143 -12z
m-1843 -6 c3 -5 -1 -14 -9 -21 -12 -10 -18 -10 -30 0 -18 15 -11 30 15 30 10
0 21 -4 24 -9z m-1868 -26 c8 -33 -12 -57 -45 -53 -18 2 -27 10 -29 26 -6 37
5 52 37 52 24 0 32 -5 37 -25z m3900 3 c19 -18 31 -173 15 -192 -7 -8 -31 -18
-53 -21 -59 -10 -68 6 -68 125 0 53 3 100 8 104 11 11 83 0 98 -16z m-3365 -1
c0 -4 -3 -39 -7 -77 -6 -64 -10 -73 -41 -101 -28 -24 -38 -28 -49 -18 -8 6
-14 18 -14 25 0 23 91 185 102 182 5 -2 9 -7 9 -11z m2369 -12 c0 -8 -9 -15
-20 -15 -20 0 -26 11 -13 23 12 13 33 7 33 -8z m-924 -58 c1 -80 -27 -70 -34
11 -3 38 -1 43 15 40 14 -3 18 -13 19 -51z m2079 41 c3 -7 6 -40 7 -72 3 -55
1 -61 -22 -72 -16 -9 -28 -10 -36 -3 -13 11 -29 133 -19 149 9 14 65 13 70 -2z
m-1150 -38 c14 -23 -18 -40 -79 -42 l-61 -2 60 -3 c65 -4 90 -17 79 -42 -4 -9
-6 -27 -5 -39 1 -17 -6 -26 -20 -29 l-22 -6 23 -17 c13 -10 20 -22 17 -27 -6
-9 -184 -10 -193 -1 -9 9 -24 111 -17 120 3 6 6 27 7 47 1 36 2 36 51 42 85
10 154 9 160 -1z m1257 -12 c6 -17 -1 -38 -13 -38 -5 0 -9 11 -9 25 0 26 14
34 22 13z m-3808 -13 c10 -27 -35 -105 -61 -105 -20 0 -16 22 13 74 27 48 38
56 48 31z m-2691 -106 l37 -10 0 -274 0 -275 -38 0 c-78 0 -77 -4 -80 285 -2
141 -1 262 2 270 6 18 27 19 79 4z m3985 -58 c-2 -28 -7 -36 -23 -36 -16 0
-21 8 -23 39 -2 21 -1 45 3 53 5 14 8 13 26 -3 14 -13 19 -28 17 -53z m-3718
26 l25 -12 0 -1250 0 -1250 -70 1 c-38 1 -82 6 -96 12 l-26 10 -8 1242 c-6
1019 -5 1243 6 1256 11 13 26 15 78 10 36 -4 77 -12 91 -19z m4636 -3 c2 -23
-1 -25 -34 -22 -61 5 -44 34 28 47 3 1 6 -11 6 -25z m1606 -26 c8 -50 -9
-2349 -17 -2380 -11 -42 -32 -34 -38 15 -8 57 8 2337 16 2360 4 9 9 24 12 33
7 23 22 8 27 -28z m-107 10 c9 -35 -10 -2350 -19 -2370 -9 -20 -28 -23 -57 -8
-19 10 -19 29 -18 733 0 397 4 928 8 1180 6 438 7 459 26 473 28 21 54 17 60
-8z m-5834 -5 c6 -6 12 -452 16 -1244 5 -989 4 -1239 -6 -1258 -13 -23 -16
-24 -95 -18 -45 3 -94 10 -109 16 l-27 11 0 1248 c0 687 3 1252 8 1256 10 11
201 1 213 -11z m243 -3 c38 -4 73 -14 77 -22 5 -7 9 -572 9 -1254 0 -1103 -2
-1243 -15 -1254 -12 -10 -42 -11 -113 -7 -54 3 -104 9 -113 12 -14 5 -16 76
-22 622 -4 339 -7 901 -7 1249 0 562 2 634 16 648 18 18 64 20 168 6z m5441
-12 c8 -22 -11 -2292 -19 -2310 -17 -39 -111 -15 -120 29 -11 55 10 2227 22
2255 6 14 19 28 29 31 37 10 84 7 88 -5z m-5035 -18 c6 -9 9 -216 7 -529 l-2
-515 -58 -34 c-66 -38 -69 -49 -9 -31 53 15 72 7 72 -30 0 -24 -7 -34 -32 -48
l-33 -17 30 -6 30 -5 2 -640 c2 -397 -1 -646 -7 -655 -8 -12 -31 -15 -119 -13
-60 1 -119 6 -130 13 l-21 11 0 1253 c0 689 3 1256 8 1260 4 4 62 6 130 4 95
-2 125 -6 132 -18z m196 -8 c5 -9 9 -106 10 -214 3 -243 16 -294 124 -487 33
-59 40 -129 16 -154 -8 -8 -37 -17 -65 -20 -62 -7 -142 -41 -172 -73 -50 -53
-49 -60 -49 459 0 265 4 487 8 494 7 11 84 22 109 15 6 -2 15 -11 19 -20z
m764 9 c5 -11 10 -62 10 -115 l0 -95 -67 -75 c-58 -64 -73 -76 -100 -76 -76 0
-85 31 -17 60 40 17 45 23 42 47 -3 27 -11 32 -75 49 -22 6 -16 88 8 110 15
14 20 28 17 58 -3 35 0 41 22 47 14 4 53 7 87 8 52 1 64 -2 73 -18z m-276 -6
c6 -18 -27 -55 -49 -55 -19 0 -19 20 1 48 18 26 39 29 48 7z m4158 -57 c9
-122 -11 -2164 -21 -2191 -10 -27 -13 -27 -63 -21 -29 3 -63 13 -76 21 l-23
14 1 952 c1 1006 6 1238 25 1263 13 18 112 34 137 22 11 -5 17 -24 20 -60z
m-2990 30 c3 -7 3 -57 0 -110 -4 -87 -6 -98 -25 -104 -35 -11 -47 19 -41 105
8 112 11 121 38 121 13 0 26 -6 28 -12z m143 -9 c19 -19 23 -174 18 -669 -3
-272 -6 -578 -6 -679 l-2 -184 -40 -14 c-22 -7 -45 -11 -51 -9 -17 6 -20 1526
-3 1557 9 17 17 20 42 15 17 -4 36 -11 42 -17z m2606 -44 c7 -70 1 -2074 -7
-2122 -3 -18 -9 -35 -14 -38 -15 -10 -155 15 -170 31 -13 13 -15 117 -12 847
1 458 5 849 8 870 6 39 6 39 48 35 51 -6 98 8 76 22 -8 6 -31 10 -50 10 -19 0
-41 4 -49 9 -22 14 -2 33 33 30 17 -2 32 1 34 6 1 6 -14 11 -35 13 -21 2 -43
8 -50 14 -18 15 -18 301 0 316 16 13 59 20 127 18 l55 -1 6 -60z m-2466 -605
c0 -355 -2 -654 -3 -665 -2 -11 0 -48 4 -81 6 -55 4 -64 -15 -83 -12 -12 -28
-20 -34 -18 -9 3 -12 179 -12 733 0 401 3 737 7 747 5 12 16 17 30 15 l23 -3
0 -645z m179 630 c16 -16 21 -1402 6 -1430 -10 -18 -19 -21 -68 -18 l-57 3 -3
720 c-1 396 0 726 3 734 4 10 18 12 57 8 28 -4 56 -11 62 -17z m2007 -10 c4
-14 7 -83 8 -153 1 -105 -2 -129 -14 -133 -17 -7 -173 33 -192 48 -14 12 -19
224 -5 245 9 15 51 21 132 19 60 -1 65 -3 71 -26z m-1678 -2 c31 -16 22 -73
-22 -140 -26 -38 -42 -75 -46 -106 -12 -87 -55 -163 -76 -131 -15 23 -7 378 9
388 16 10 110 2 135 -11z m1350 13 c22 -9 25 -16 31 -98 8 -97 3 -123 -24
-123 -20 0 -168 57 -187 73 -17 13 -17 121 0 135 7 6 35 12 62 15 28 2 60 4
72 5 12 1 33 -2 46 -7z m-1549 -484 c-1 -462 -7 -574 -35 -644 -27 -70 -30
-13 -27 540 2 309 7 568 11 575 5 7 19 12 30 10 l22 -3 -1 -478z m306 459 c0
-3 -4 -8 -10 -11 -5 -3 -10 -1 -10 4 0 6 5 11 10 11 6 0 10 -2 10 -4z m-1112
-33 c4 -26 -17 -43 -63 -50 -32 -5 -37 -4 -33 13 4 20 66 66 82 61 6 -2 12
-13 14 -24z m2052 -34 c0 -20 -15 -26 -25 -9 -9 15 3 43 15 35 5 -3 10 -15 10
-26z m-2996 -38 c10 -15 -4 -39 -25 -44 -25 -7 -36 17 -19 38 14 17 36 20 44
6z m925 -60 c8 -5 11 -16 8 -24 -6 -17 -67 -31 -80 -18 -15 15 -1 39 25 44 13
2 25 5 28 5 3 1 11 -2 19 -7z m-149 -46 c0 -16 -36 -28 -90 -29 -47 -1 -53 16
-10 31 51 17 100 16 100 -2z m380 -299 c0 -298 0 -305 -20 -311 -48 -15 -50
-3 -50 304 0 304 1 311 47 311 l23 0 0 -304z m-1160 245 c0 -16 -11 -22 -56
-31 -53 -11 -94 -7 -80 8 10 10 97 40 119 41 10 1 17 -6 17 -18z m945 -51 c0
-22 -5 -25 -44 -28 -49 -4 -66 10 -50 41 8 14 20 17 52 15 37 -3 42 -6 42 -28z
m-162 -4 c3 -8 3 -17 0 -20 -11 -10 -103 -6 -103 4 0 26 94 40 103 16z m247
-6 c0 -5 -4 -10 -10 -10 -5 0 -10 5 -10 10 0 6 5 10 10 10 6 0 10 -4 10 -10z
m-943 -64 c-4 -9 -11 -16 -17 -16 -17 0 -24 31 -9 41 18 11 34 -5 26 -25z
m3490 4 l66 -30 -7 -852 c-5 -641 -10 -855 -19 -860 -14 -10 -155 1 -178 13
-28 14 -31 130 -23 937 l7 773 31 24 c17 14 37 25 44 25 7 0 42 -14 79 -30z
m-3579 -7 c-4 -20 -35 -30 -50 -15 -15 15 0 32 28 32 19 0 25 -5 22 -17z m736
1 c36 -5 46 -11 46 -25 0 -15 -7 -19 -37 -18 -63 2 -98 13 -101 32 -4 19 14
21 92 11z m200 -20 c9 -3 16 -17 16 -30 0 -20 -5 -24 -33 -24 -41 0 -73 21
-64 44 6 16 50 22 81 10z m104 -151 c1 -82 -2 -161 -7 -174 l-9 -24 -11 28
c-12 31 -16 309 -4 321 22 21 28 -11 31 -151z m842 144 c0 -16 -48 -87 -59
-87 -15 0 -21 31 -11 50 10 20 48 50 62 50 5 0 8 -6 8 -13z m-3757 -26 c4 -4
6 -144 5 -312 l-3 -304 -38 1 c-73 3 -72 0 -72 317 0 155 3 290 8 301 6 16 14
17 50 12 23 -4 45 -10 50 -15z m4037 4 c0 -8 -6 -15 -14 -15 -17 0 -28 14 -19
24 12 12 33 6 33 -9z m-2162 -19 c3 -13 -1 -17 -14 -14 -11 2 -20 11 -22 22
-3 13 1 17 14 14 11 -2 20 -11 22 -22z m2277 -15 c0 -17 -13 -34 -45 -57 -45
-33 -80 -43 -80 -24 0 19 93 111 109 108 9 -2 16 -13 16 -27z m-1517 -2 c31
-12 28 -29 -5 -29 -48 0 -103 20 -103 36 0 13 8 14 43 9 23 -4 52 -11 65 -16z
m1176 -81 c-5 -71 -12 -103 -29 -133 -32 -55 -82 -102 -95 -89 -7 7 -10 56 -8
124 l3 114 50 38 c79 60 86 56 79 -54z m-989 -273 l0 -330 -38 -3 c-68 -6 -67
-11 -67 299 0 274 0 278 22 293 20 15 21 16 5 34 -30 32 -21 43 31 40 l47 -3
0 -330z m1458 319 c9 -9 -4 -34 -18 -34 -14 0 -27 25 -18 34 4 3 12 6 18 6 6
0 14 -3 18 -6z m-1678 -46 c50 -13 62 -33 15 -24 -16 3 -43 9 -60 12 -16 3
-32 10 -35 15 -8 13 26 11 80 -3z m1829 -14 c45 -14 87 -28 94 -30 8 -2 12
-26 11 -79 l-1 -75 -104 0 c-97 0 -104 1 -104 20 0 19 3 20 90 33 15 3 8 5
-17 6 -55 1 -73 9 -73 32 0 12 9 21 28 25 47 10 48 11 10 19 -33 6 -38 11 -38
34 0 26 7 41 18 41 3 0 41 -12 86 -26z m773 -10 c3 -8 -3 -25 -14 -37 -10 -12
-25 -31 -33 -42 -12 -17 -12 -18 0 -7 8 6 22 12 32 12 16 0 18 -9 16 -92 -3
-79 -6 -93 -20 -96 -25 -5 -71 44 -63 67 8 26 -34 37 -51 13 -10 -13 -8 -21 7
-41 14 -17 16 -28 9 -35 -15 -15 -44 5 -48 33 -2 11 -12 26 -23 31 -14 8 -18
17 -13 35 4 15 2 25 -5 25 -17 0 -14 95 3 109 17 15 78 11 83 -5 2 -6 -8 -27
-22 -48 l-25 -37 34 26 c19 14 46 44 60 65 27 42 62 53 73 24z m-922 -24 c0
-8 -8 -16 -17 -18 -13 -2 -18 3 -18 18 0 15 5 20 18 18 9 -2 17 -10 17 -18z
m594 -46 c11 -4 12 -116 6 -712 -4 -389 -10 -710 -14 -714 -7 -8 -151 44 -188
68 l-23 14 0 674 c0 370 3 676 6 679 7 6 188 -1 213 -9z m-272 -41 c-3 -10 -5
-4 -5 12 0 17 2 24 5 18 2 -7 2 -21 0 -30z m-1939 -236 c3 -246 3 -244 -70
-211 -87 39 -88 41 -88 174 0 69 4 121 10 125 6 3 7 17 4 31 -6 25 -4 27 49
39 24 5 28 10 23 29 -7 30 1 38 39 34 l30 -3 3 -218z m1620 186 c5 -18 -28
-29 -38 -12 -5 7 -6 17 -3 22 7 12 35 5 41 -10z m-138 -27 c0 -3 -4 -8 -10
-11 -5 -3 -10 -1 -10 4 0 6 5 11 10 11 6 0 10 -2 10 -4z m388 -509 c2 -393 0
-488 -10 -492 -8 -3 -57 36 -111 88 l-97 93 0 192 c0 182 1 193 21 213 15 15
18 24 10 32 -18 18 -13 27 19 39 26 8 29 13 18 25 -10 12 -8 18 12 33 l23 18
-41 7 c-62 10 -56 35 7 35 50 0 74 13 45 24 -9 3 -33 6 -54 6 -44 0 -57 12
-35 30 13 11 13 14 -2 25 -30 22 -9 45 42 45 60 0 58 18 -2 22 -40 3 -48 6
-48 23 0 24 39 33 135 31 l65 -1 3 -488z m-250 455 c3 -16 -2 -22 -17 -22 -26
0 -36 17 -20 36 16 19 33 13 37 -14z m-1251 -344 c1 -253 -1 -299 -14 -309
-29 -24 -48 2 -51 71 -2 35 0 70 4 79 4 9 6 20 5 25 -1 4 3 14 10 22 8 10 7
17 -5 29 -13 14 -16 44 -16 189 0 181 4 200 45 194 19 -3 20 -11 22 -300z
m1253 276 c0 -19 -28 -30 -42 -16 -8 8 -8 15 1 26 14 17 41 10 41 -10z m822 5
c14 7 40 11 59 9 l34 -3 3 -602 c2 -524 0 -603 -13 -616 -12 -12 -31 -14 -92
-10 -43 3 -85 10 -95 14 -12 7 -18 29 -24 86 -8 84 2 1118 10 1132 3 5 26 1
50 -7 37 -14 48 -14 68 -3z m-2654 -83 c2 -32 -1 -63 -6 -68 -12 -12 -67 15
-76 37 -7 20 10 67 32 83 33 25 47 11 50 -52z m1820 23 c-2 -6 -8 -10 -13 -10
-5 0 -11 4 -13 10 -2 6 4 11 13 11 9 0 15 -5 13 -11z m-1362 -75 c7 -38 -1
-182 -10 -192 -13 -12 -19 11 -24 82 -7 118 17 199 34 110z m1364 11 c0 -8 -7
-15 -15 -15 -8 0 -15 7 -15 15 0 8 7 15 15 15 8 0 15 -7 15 -15z m-147 -2 c-7
-2 -19 -2 -25 0 -7 3 -2 5 12 5 14 0 19 -2 13 -5z m474 -115 c-3 -7 -5 -2 -5
12 0 14 2 19 5 13 2 -7 2 -19 0 -25z m-4608 13 c10 -7 14 -67 19 -288 3 -154
2 -292 -2 -307 -5 -22 -12 -26 -44 -26 -21 0 -47 6 -58 14 -18 14 -19 29 -19
298 0 156 3 291 7 301 8 18 71 24 97 8z m1355 -40 c28 -16 79 -39 114 -51 35
-13 67 -32 73 -42 7 -12 9 -218 7 -593 -3 -510 -5 -576 -19 -590 -13 -13 -39
-16 -127 -16 -61 0 -120 5 -132 11 -20 11 -20 16 -20 660 l0 650 26 0 c15 0
50 -13 78 -29z m2233 -113 c-2 -18 -4 -4 -4 32 0 36 2 50 4 33 2 -18 2 -48 0
-65z m696 -13 c1 -5 -6 -11 -15 -13 -11 -2 -18 3 -18 13 0 17 30 18 33 0z
m-2521 -59 c94 -44 118 -59 123 -79 4 -14 5 -244 3 -511 -3 -435 -5 -487 -20
-502 -24 -24 -242 -25 -266 0 -15 15 -17 67 -20 573 -2 306 -1 562 3 571 8 22
44 11 177 -52z m2526 -88 c-3 -105 -4 -113 -23 -113 -18 0 -20 8 -23 99 -3
114 0 126 28 126 20 0 21 -5 18 -112z m-1378 52 c0 -16 -4 -30 -10 -30 -5 0
-10 14 -10 30 0 17 5 30 10 30 6 0 10 -13 10 -30z m-90 -27 c2 -51 -1 -253 -3
-271 -4 -28 -57 -84 -76 -80 -10 2 -15 21 -18 67 -3 55 0 68 18 87 l21 22 -21
47 c-31 70 -28 91 17 114 39 21 62 26 62 14z m-755 -87 l80 -42 3 -136 c2
-114 0 -137 -13 -148 -11 -9 -48 -14 -108 -14 l-92 -1 -3 185 c-1 101 0 190 3
198 7 18 31 10 130 -42z m970 -46 c10 -16 -24 -62 -43 -58 -21 4 -28 34 -12
53 14 17 46 20 55 5z m-724 -55 c4 -3 7 -98 6 -210 l-2 -203 -48 2 c-26 2 -51
7 -56 12 -5 5 -5 38 -1 74 5 36 5 97 0 135 -11 86 -13 189 -2 199 7 8 86 1
103 -9z m143 -17 c8 -13 7 -26 -1 -48 -6 -17 -7 -32 -2 -36 12 -7 11 -41 -1
-49 -6 -3 -20 -3 -31 0 -15 5 -20 13 -17 30 4 17 0 25 -14 28 -21 6 -26 65 -6
85 17 17 58 11 72 -10z m186 2 c0 -5 -4 -10 -10 -10 -5 0 -10 5 -10 10 0 6 5
10 10 10 6 0 10 -4 10 -10z m25 -57 c3 -10 3 -58 -1 -108 -5 -69 -11 -95 -26
-112 -21 -22 -17 -43 7 -43 7 0 16 -7 19 -16 8 -20 6 -230 -3 -269 -7 -32 0
-30 -116 -38 l-30 -2 0 185 c0 178 1 185 20 185 37 0 40 26 6 54 -32 27 -40
58 -19 79 8 8 8 15 -1 25 -19 23 -3 43 47 59 63 21 89 21 97 1z m-211 -110 c8
-19 -8 -38 -23 -29 -16 10 -13 46 3 46 8 0 17 -8 20 -17z m-2446 -30 c9 -12
12 -82 12 -264 0 -136 -3 -254 -6 -263 -9 -24 -79 -21 -105 5 -20 20 -21 28
-17 272 1 139 7 258 12 266 11 18 86 6 104 -16z m-185 -5 c7 -23 1 -38 -14
-38 -5 0 -9 14 -9 30 0 35 15 40 23 8z m3007 -23 c0 -24 -5 -56 -12 -70 -9
-19 -8 -31 1 -49 8 -15 13 -70 14 -151 l2 -128 -42 -15 c-71 -26 -73 -20 -73
196 l0 186 37 38 c52 53 73 51 73 -7z m363 -50 c4 -38 6 -108 5 -155 l-3 -85
-45 0 c-55 0 -58 7 -59 163 -1 136 6 154 57 150 l37 -3 8 -70z m-753 49 c0 -9
-5 -14 -12 -12 -18 6 -21 28 -4 28 9 0 16 -7 16 -16z m582 -6 c3 -7 -1 -33 -9
-58 -13 -42 -12 -45 8 -61 21 -16 22 -21 13 -95 -9 -75 -10 -79 -34 -79 l-25
0 -3 139 c-3 138 3 166 33 166 8 0 15 -6 17 -12z m284 -34 c19 -46 19 -204 0
-230 -12 -15 -18 -17 -33 -8 -16 10 -18 24 -14 140 2 71 5 132 8 137 8 13 24
-4 39 -39z m179 6 l26 -10 -3 -112 -3 -113 -57 -3 c-64 -3 -62 -6 -71 91 -4
36 0 53 14 71 11 13 19 38 19 55 0 26 4 31 24 31 14 0 36 -4 51 -10z m-1347
-22 c9 -9 12 -79 12 -254 l0 -242 -32 -31 c-29 -28 -38 -31 -94 -31 -98 0 -94
-12 -94 294 0 144 3 266 7 269 12 12 188 8 201 -5z m772 -69 c0 -60 -3 -80
-12 -77 -8 3 -14 28 -16 68 -3 67 1 90 18 90 6 0 10 -32 10 -81z m719 -17 c-1
-83 -10 -116 -31 -120 -28 -5 -40 35 -36 115 4 79 17 100 50 82 15 -8 18 -22
17 -77z m-1181 56 c16 -16 17 -339 1 -355 -6 -6 -24 -7 -42 -4 l-32 7 1 166
c1 92 4 174 7 182 7 19 48 21 65 4z m1378 -13 c21 -14 24 -23 24 -80 0 -75
-10 -85 -87 -85 -70 0 -77 8 -81 89 -6 101 -3 105 64 98 31 -3 66 -13 80 -22z
m-4001 5 c3 -5 1 -10 -4 -10 -6 0 -11 5 -11 10 0 6 2 10 4 10 3 0 8 -4 11 -10z
m4109 -76 c33 -33 6 -103 -29 -74 -18 15 -20 61 -3 78 15 15 13 15 32 -4z
m-4098 -129 c8 -32 -1 -55 -21 -55 -11 0 -15 11 -15 40 0 46 25 57 36 15z
m4309 -145 c0 -141 -1 -145 -22 -148 -12 -2 -44 7 -72 19 l-51 21 0 112 c0 61
4 116 8 122 11 18 34 23 87 21 l50 -2 0 -145z m-300 45 l0 -90 -67 -9 c-99
-13 -101 -12 -97 89 3 62 8 88 19 95 8 6 44 9 80 8 l65 -3 0 -90z m100 73 c3
-13 5 -61 3 -107 -3 -88 -13 -105 -42 -76 -12 12 -16 36 -16 95 0 43 3 85 6
94 9 24 43 20 49 -6z m-437 -119 c3 -142 3 -143 -70 -152 -68 -9 -72 0 -64
133 3 60 9 116 12 124 7 17 34 24 84 22 l35 -1 3 -126z m113 101 c4 -14 7 -62
8 -108 1 -79 0 -83 -24 -94 -14 -6 -28 -8 -33 -4 -10 10 -16 159 -7 202 5 29
10 35 28 32 13 -2 24 -13 28 -28z m1576 8 c9 -7 13 -42 13 -118 0 -146 -8
-164 -57 -118 -24 22 -31 48 -13 48 21 0 9 34 -24 65 -40 38 -80 111 -71 132
4 13 17 15 72 9 37 -4 73 -12 80 -18z m-2009 -10 c13 -13 16 -321 4 -413 l-7
-50 -45 0 -45 0 -3 191 c-3 223 3 265 38 275 37 10 45 10 58 -3z m127 -20 c3
-18 5 -127 3 -243 -3 -205 -3 -210 -24 -213 -13 -2 -24 4 -29 15 -9 25 -20
414 -11 447 5 19 13 26 31 26 19 0 25 -6 30 -32z m1209 17 c6 -16 -30 -55 -51
-55 -13 0 -19 51 -6 63 12 13 51 7 57 -8z m975 -8 c21 -17 11 -441 -10 -463
-11 -10 -41 -15 -105 -17 l-89 -2 0 243 c0 205 2 244 15 253 19 13 170 1 189
-14z m-1219 -7 c0 -20 -13 -40 -26 -40 -14 0 -20 41 -8 53 8 7 34 -3 34 -13z
m-1248 -40 c3 -25 7 -120 7 -211 1 -179 -5 -204 -44 -175 -18 13 -20 32 -23
210 -3 107 -2 203 2 211 3 10 15 15 28 13 19 -2 24 -11 30 -48z m2731 24 c17
-6 18 -21 15 -205 -2 -130 -7 -202 -14 -209 -14 -14 -147 -32 -170 -23 -14 5
-16 30 -12 217 2 116 7 217 12 225 7 10 26 12 80 8 39 -3 79 -9 89 -13z
m-1576 -81 c-2 -16 -4 -5 -4 22 0 28 2 40 4 28 2 -13 2 -35 0 -50z m1783 54
c42 -15 49 -42 48 -197 -1 -161 -2 -163 -73 -177 -88 -18 -92 -15 -101 74 -7
76 1 269 12 298 7 18 64 19 114 2z m197 -38 c37 -12 43 -38 43 -180 0 -110 -4
-117 -70 -121 l-44 -3 -8 40 c-9 49 -10 237 -2 259 7 18 38 21 81 5z m-3257
-160 c0 -146 -7 -179 -40 -179 -32 0 -40 33 -40 170 l0 131 32 14 c18 7 36 11
40 9 5 -3 8 -68 8 -145z m1486 136 c18 -15 18 -16 -11 -40 -43 -35 -58 -33
-50 8 12 53 25 60 61 32z m-131 -25 c-5 -8 -11 -8 -17 -2 -6 6 -7 16 -3 22 5
8 11 8 17 2 6 -6 7 -16 3 -22z m-1605 -92 c0 -62 -3 -123 -6 -135 -7 -26 -29
-30 -38 -7 -8 21 -8 239 1 247 3 4 15 7 25 7 16 0 18 -10 18 -112z m121 91 c7
-15 9 -59 4 -146 -7 -119 -8 -124 -29 -121 -17 2 -22 12 -28 48 -9 59 -10 225
-1 233 13 14 43 6 54 -14z m3563 0 c6 -5 12 -48 14 -97 5 -96 -5 -117 -50
-110 -21 3 -24 9 -31 89 -9 105 1 144 36 134 12 -4 26 -11 31 -16z m-3785 -2
c7 -10 9 -46 3 -118 -5 -82 -10 -104 -22 -104 -10 0 -17 15 -22 45 -9 60 -10
175 -1 183 10 11 30 8 42 -6z m-104 -47 c0 -7 -6 -15 -12 -17 -8 -3 -13 4 -13
17 0 13 5 20 13 18 6 -3 12 -11 12 -18z m2085 -107 c0 -63 -3 -85 -14 -89 -27
-10 -176 70 -176 95 0 4 32 33 72 65 l71 56 24 -22 c20 -19 23 -30 23 -105z
m1918 60 c-3 -54 -20 -60 -30 -12 -7 39 -1 59 19 59 11 0 13 -11 11 -47z
m-4133 -67 c-4 -52 -11 -76 -20 -76 -9 0 -14 23 -17 78 -5 84 5 113 30 88 12
-11 13 -30 7 -90z m1948 79 c7 -16 -8 -29 -23 -20 -15 9 -12 35 4 35 8 0 16
-7 19 -15z m437 -71 c22 -86 46 -124 75 -124 23 0 28 23 16 66 -16 60 3 63 38
8 24 -38 31 -60 31 -101 0 -59 3 -57 -102 -67 -50 -5 -60 -3 -85 18 -27 24
-28 27 -31 141 -4 123 -1 145 21 145 9 0 22 -31 37 -86z m-2465 7 c-5 -26 -11
-32 -28 -29 -29 4 -37 56 -11 75 27 20 48 -5 39 -46z m1248 2 c13 -3 17 -15
17 -58 l0 -54 -55 -31 c-77 -44 -85 -38 -85 59 0 66 3 82 18 90 15 9 59 7 105
-6z m1566 -41 c56 -47 101 -77 101 -67 0 4 -8 20 -17 36 -21 36 -10 48 25 27
24 -15 27 -24 30 -76 4 -79 -6 -87 -108 -96 -96 -8 -110 -1 -110 55 0 43 19
52 51 23 10 -9 25 -14 34 -10 19 7 8 33 -36 84 -27 30 -38 62 -22 62 4 0 27
-17 52 -38z m1409 -260 c-4 -172 -12 -209 -38 -178 -9 12 -11 59 -8 188 4 182
10 215 35 182 12 -15 14 -52 11 -192z m-110 58 c4 -167 -2 -210 -31 -210 -54
1 -64 39 -52 205 7 113 19 139 59 133 20 -3 21 -9 24 -128z m-3804 -19 c-1
-84 -4 -115 -14 -121 -27 -17 -32 4 -28 109 4 109 11 135 31 128 8 -3 12 -39
11 -116z m3656 17 c0 -112 -8 -165 -25 -172 -18 -7 -88 13 -97 28 -9 14 -10
93 -1 164 7 60 19 70 86 71 l37 1 0 -92z m-3559 51 c4 -13 7 -57 8 -97 1 -65
-1 -73 -16 -70 -14 3 -20 18 -26 78 -8 82 -3 124 16 117 6 -2 14 -14 18 -28z
m127 -65 c-4 -77 -15 -101 -44 -90 -15 6 -16 16 -10 83 6 77 16 96 44 86 11
-5 13 -22 10 -79z m3234 39 c5 -18 5 -61 0 -95 l-7 -63 -53 3 c-29 1 -64 7
-77 12 -23 9 -25 14 -25 79 0 76 3 81 60 92 69 14 93 7 102 -28z m-3634 -24
c2 -43 -10 -80 -23 -67 -10 10 -18 85 -11 103 11 30 31 9 34 -36z m524 12 c19
-72 -9 -133 -46 -102 -12 10 -16 31 -16 78 0 64 0 64 27 61 21 -2 29 -10 35
-37z m126 -27 c-2 -32 -9 -51 -21 -58 -25 -15 -38 9 -31 54 9 46 11 50 35 50
18 0 20 -6 17 -46z m2743 19 c5 -15 9 -43 7 -62 -3 -32 -7 -36 -33 -39 -35 -4
-126 6 -141 16 -15 10 -25 65 -14 82 8 13 68 26 138 29 27 1 34 -4 43 -26z
m-2593 5 c7 -7 12 -25 12 -40 0 -21 -6 -29 -24 -34 -14 -3 -32 -4 -42 -2 -19
3 -39 51 -30 73 7 18 67 20 84 3z m127 -29 c0 -15 -7 -25 -18 -27 -22 -4 -33
24 -17 43 18 21 35 13 35 -16z m182 8 c3 -4 3 -13 0 -22 -8 -20 -80 -20 -97 0
-20 24 -1 38 47 32 24 -2 47 -7 50 -10z m2011 -16 c6 -39 -17 -48 -102 -40
-82 8 -96 13 -96 35 0 23 39 33 120 31 71 -2 75 -3 78 -26z m-325 -6 c-4 -15
-56 -12 -61 3 -3 10 5 13 29 10 19 -2 33 -7 32 -13z m-1453 -71 c0 -8 -7 -14
-15 -14 -15 0 -21 21 -9 33 10 9 24 -2 24 -19z m1148 -6 c4 -35 -16 -37 -46
-5 -25 27 -19 39 18 35 19 -2 26 -10 28 -30z m-1360 -40 c3 -56 2 -58 -30 -78
l-33 -20 28 0 c49 0 44 -27 -14 -86 -71 -72 -89 -72 -89 0 0 30 5 58 10 61 8
5 7 11 -1 21 -13 16 -3 131 14 152 6 8 28 12 61 10 l51 -3 3 -57z m110 23 c2
-20 -2 -37 -10 -42 -34 -22 -52 1 -41 52 4 23 10 29 27 27 16 -2 22 -11 24
-37z m1563 29 c18 -10 19 -23 19 -205 0 -234 -2 -236 -102 -122 -118 133 -118
133 -118 228 0 53 5 90 12 97 15 15 161 16 189 2z m-1870 -30 c4 -14 7 -89 8
-167 1 -134 0 -143 -20 -153 -45 -25 -49 -11 -49 155 0 92 4 165 11 176 14 27
41 20 50 -11z m-116 -2 c3 -13 4 -99 3 -193 l-3 -169 -34 -23 c-65 -44 -66
-41 -66 180 0 185 1 200 19 213 31 23 75 18 81 -8z m2300 2 c12 -10 15 -42 14
-169 -1 -221 -10 -310 -34 -327 -32 -24 -113 -18 -152 12 l-33 25 0 220 c0
142 4 228 11 241 10 19 18 20 95 15 46 -2 91 -10 99 -17z m-2463 -60 c12 -109
9 -375 -6 -395 -21 -29 -42 -12 -50 41 -8 63 -8 399 1 408 4 4 16 6 28 4 16
-2 21 -13 27 -58z m-124 -130 c2 -96 0 -194 -3 -217 -6 -39 -9 -43 -35 -43
-41 0 -44 19 -37 226 6 184 14 217 50 212 22 -3 22 -7 25 -178z m2859 159 c13
-12 15 -40 11 -216 -3 -163 -7 -206 -19 -218 -10 -10 -45 -18 -96 -22 -74 -5
-81 -4 -85 13 -6 25 1 389 8 433 l5 34 80 -6 c44 -3 87 -11 96 -18z m-2997
-18 c6 -12 10 -95 10 -201 l0 -181 -22 3 c-18 2 -24 12 -30 43 -9 51 -10 340
-1 348 12 13 32 7 43 -12z m3184 -1 c21 -4 42 -14 46 -20 13 -20 22 -203 14
-279 -4 -40 -13 -78 -20 -85 -7 -8 -39 -17 -70 -21 -85 -10 -86 -9 -82 210 2
99 7 186 11 193 10 14 46 15 101 2z m-3294 -154 c0 -168 -6 -208 -29 -204 -14
3 -16 23 -14 167 2 156 10 200 34 185 5 -3 9 -70 9 -148z m-109 103 c4 -13 7
-84 8 -157 1 -122 -1 -133 -16 -130 -12 2 -20 17 -25 43 -9 52 -10 260 -1 269
12 11 27 0 34 -25z m3613 7 c32 -13 33 -16 39 -82 11 -118 8 -201 -8 -217 -7
-8 -31 -18 -52 -22 -58 -11 -63 4 -63 175 0 81 3 150 7 153 10 11 41 8 77 -7z
m169 -48 c12 -10 18 -37 23 -104 6 -78 4 -92 -11 -108 -26 -26 -59 -17 -66 19
-9 41 -11 190 -2 198 10 11 38 8 56 -5z m122 -82 c8 -40 -2 -79 -18 -73 -13 4
-22 70 -13 93 10 25 25 15 31 -20z m5 -415 c0 -244 -4 -267 -37 -239 -14 11
-15 38 -10 223 6 221 11 255 33 255 12 0 14 -42 14 -239z m-3275 200 c0 -8
-12 -23 -26 -33 -22 -16 -30 -18 -48 -9 -27 15 -27 39 2 51 31 13 72 8 72 -9z
m1214 -1 c30 -8 47 -8 62 0 16 9 26 8 45 -5 21 -13 25 -23 22 -53 -4 -43 -19
-49 -115 -51 -53 -1 -64 2 -77 21 -16 23 -22 89 -9 102 4 3 13 4 19 2 7 -3 31
-10 53 -16z m1955 4 c3 -9 6 -98 6 -199 0 -101 -3 -190 -6 -199 -7 -19 -44
-21 -68 -3 -17 13 -18 29 -14 201 4 170 6 190 23 202 25 19 51 18 59 -2z
m-3799 -180 c0 -152 -1 -159 -20 -159 -19 0 -20 7 -20 145 0 149 6 185 28 177
9 -3 12 -44 12 -163z m3652 -9 c2 -88 -1 -166 -6 -173 -6 -10 -21 -12 -55 -7
-76 12 -80 19 -72 163 4 68 11 134 16 147 9 24 34 34 85 31 l30 -1 2 -160z
m-3554 109 c4 -21 6 -84 5 -139 -3 -92 -5 -100 -23 -100 -19 0 -20 8 -23 129
-1 72 0 136 3 144 9 24 29 7 38 -34z m122 -99 l0 -120 -25 0 c-24 0 -25 2 -28
80 -2 44 0 99 3 123 6 37 9 43 28 40 21 -3 22 -7 22 -123z m1405 99 c0 -16
-26 -19 -35 -4 -3 6 -4 14 0 20 8 13 35 1 35 -16z m914 20 c9 -3 16 -12 16
-20 0 -11 -16 -14 -65 -14 -58 0 -65 2 -65 20 0 17 7 20 49 20 27 0 56 -3 65
-6z m904 -6 c8 -8 12 -54 12 -141 l0 -130 -61 7 c-111 13 -109 11 -109 124 0
63 4 104 13 115 6 9 35 20 62 25 70 13 70 13 83 0z m-3108 -13 c7 -8 14 -52
17 -97 5 -76 4 -85 -16 -103 -17 -15 -26 -17 -39 -9 -14 9 -18 30 -20 104 -3
92 5 120 33 120 7 0 18 -7 25 -15z m1820 -11 c0 -10 -7 -14 -22 -12 -32 5 -35
28 -4 28 17 0 26 -5 26 -16z m-1682 -6 c18 -18 15 -42 -9 -72 -17 -22 -24 -25
-36 -15 -10 9 -13 23 -8 48 4 20 9 39 11 43 8 12 28 10 42 -4z m-654 -29 c8
-40 8 -212 0 -233 -16 -43 -24 -3 -24 124 0 133 10 178 24 109z m3400 -61 c11
-110 6 -119 -67 -111 -106 12 -137 39 -137 122 0 66 25 80 140 77 l55 -1 9
-87z m-284 49 c0 -19 -10 -27 -26 -20 -21 8 -17 33 6 33 11 0 20 -6 20 -13z
m-318 -9 c20 -17 28 -64 14 -83 -9 -13 -27 -14 -104 -9 -78 6 -95 10 -103 27
-8 14 -8 26 0 43 9 20 18 23 78 27 37 2 75 4 84 5 8 1 22 -4 31 -10z m273 -16
c30 -21 41 -35 43 -60 4 -37 1 -38 -34 -16 -21 14 -24 14 -18 1 11 -29 -19
-31 -43 -3 -26 31 -30 51 -8 42 13 -5 14 -2 4 15 -11 21 -6 49 8 49 4 -1 26
-13 48 -28z m-1397 -24 c3 -24 0 -28 -22 -28 -16 0 -27 7 -31 20 -9 27 2 42
28 38 16 -2 23 -11 25 -30z m473 15 c6 -6 9 -19 6 -27 -5 -13 -24 -16 -102
-16 -100 0 -116 7 -101 46 5 13 21 15 96 12 50 -1 94 -8 101 -15z m191 0 c26
-23 23 -43 -7 -43 -27 0 -41 20 -31 45 7 19 15 19 38 -2z m148 2 c19 -23 8
-50 -24 -53 -55 -7 -93 6 -98 33 -3 13 -3 27 0 30 12 12 110 4 122 -10z
m-1672 -22 c4 -30 -41 -75 -71 -71 -43 6 -31 69 18 89 31 12 50 6 53 -18z
m1089 11 c7 -18 -17 -38 -31 -24 -11 11 -1 40 14 40 6 0 13 -7 17 -16z m1066
-22 c20 -18 23 -52 3 -52 -16 0 -57 60 -50 72 6 9 20 3 47 -20z"/>
<path d="M6911 9124 c0 -11 3 -14 6 -6 3 7 2 16 -1 19 -3 4 -6 -2 -5 -13z"/>
<path d="M2012 10220 c-26 -35 -27 -46 -6 -54 45 -17 76 18 53 60 -16 31 -21
30 -47 -6z"/>
<path d="M2144 10155 c-9 -14 -16 -36 -16 -50 0 -34 28 -75 52 -75 24 0 25 8
6 29 -22 26 -28 57 -12 70 14 12 11 51 -5 51 -5 0 -16 -11 -25 -25z"/>
<path d="M2363 9367 c-43 -35 -81 -57 -98 -57 -8 0 -23 16 -32 35 -9 19 -19
35 -23 35 -3 0 -4 -28 -2 -63 4 -61 3 -64 -28 -90 -17 -15 -63 -46 -102 -68
-97 -57 -139 -98 -178 -171 -96 -184 -131 -205 -252 -157 -145 58 -233 71
-307 44 -36 -12 -52 -12 -119 -1 -77 14 -100 12 -71 -4 38 -22 112 -91 182
-170 41 -47 102 -112 136 -145 33 -33 61 -64 61 -70 0 -6 -32 -42 -70 -80 -84
-83 -151 -185 -209 -314 -23 -52 -52 -109 -65 -125 -13 -17 -38 -60 -56 -96
-41 -81 -131 -201 -179 -237 -20 -15 -64 -51 -99 -80 -35 -29 -73 -53 -84 -53
-12 0 -51 9 -87 21 -82 26 -274 87 -319 101 -44 13 -50 5 -16 -21 16 -13 24
-26 20 -36 -3 -9 1 -18 9 -21 8 -4 15 -13 15 -20 0 -8 16 -24 35 -35 19 -12
35 -27 35 -34 0 -8 9 -17 21 -20 16 -5 19 -12 15 -30 -5 -18 1 -25 32 -39 36
-17 40 -16 75 0 30 14 40 15 50 5 10 -10 5 -18 -22 -41 -38 -32 -35 -45 17
-67 33 -13 37 -13 63 6 28 21 49 27 49 15 0 -4 -20 -38 -44 -78 -24 -39 -47
-81 -51 -93 -12 -41 22 -26 62 27 38 52 53 57 98 40 32 -12 31 -22 -8 -115
-43 -100 -14 -97 49 6 19 33 41 59 49 59 7 0 29 -7 49 -15 52 -22 49 -50 -9
-75 -25 -11 -45 -25 -45 -32 0 -7 25 -29 56 -48 72 -45 97 -95 159 -306 26
-87 59 -188 75 -224 15 -36 34 -85 41 -109 8 -27 29 -60 56 -87 26 -25 43 -51
41 -61 -2 -15 6 -19 47 -23 49 -5 130 -45 156 -76 14 -17 4 -30 -26 -36 -14
-3 -5 -9 29 -21 63 -22 89 -21 109 1 22 24 21 50 -3 90 -11 18 -20 34 -20 37
0 17 62 30 168 35 l123 5 -64 97 c-68 101 -78 125 -121 275 -26 91 -31 123
-20 123 11 0 100 -53 139 -83 22 -16 117 -109 211 -205 l171 -174 22 23 21 23
-33 19 c-18 10 -40 31 -50 45 -235 374 -325 464 -535 536 -82 29 -118 48 -182
97 -44 34 -80 66 -80 71 0 5 6 19 14 31 12 19 11 33 -14 116 -16 51 -30 110
-32 130 -5 58 21 50 67 -21 44 -69 102 -138 116 -138 21 0 5 37 -58 137 -82
131 -133 228 -133 254 0 39 30 17 66 -48 59 -110 104 -174 162 -235 52 -55 82
-72 82 -46 0 16 -43 89 -105 178 -60 85 -115 181 -115 198 0 30 32 4 110 -89
165 -197 266 -234 122 -45 -88 117 -122 167 -122 183 0 19 22 6 100 -61 67
-58 164 -115 175 -104 14 14 -28 69 -122 158 -77 74 -94 94 -79 98 10 2 30 -5
45 -15 128 -94 200 -130 202 -102 3 34 -5 56 -29 81 -32 34 -23 45 25 30 46
-14 53 -9 53 34 0 28 5 36 26 44 24 10 26 13 20 54 -6 41 -5 44 20 50 23 6 25
11 21 39 -3 18 -8 42 -12 55 -6 19 -4 22 18 22 31 0 42 15 39 52 -1 14 2 29 6
32 5 3 38 -9 73 -25 35 -17 108 -49 163 -70 119 -48 171 -73 214 -106 29 -22
32 -29 32 -77 0 -58 6 -71 27 -55 10 9 18 8 31 -3 31 -27 49 -34 30 -11 -42
47 -1 60 49 16 34 -31 64 -111 83 -223 25 -151 45 -212 75 -224 25 -9 63 14
74 45 13 39 23 37 55 -11 29 -43 49 -49 85 -24 21 15 23 22 18 70 -7 64 5 69
49 23 44 -47 61 -53 91 -34 21 14 24 22 20 52 -7 42 9 51 53 28 39 -20 57 -8
62 38 2 26 8 33 28 35 39 6 45 17 30 63 -13 39 -13 42 9 59 35 25 22 58 -39
99 -63 43 -64 58 -5 57 72 -2 82 38 25 99 -15 17 -33 46 -39 66 -24 74 -81 95
-298 109 -93 6 -166 15 -188 25 -72 30 -239 162 -420 334 -45 42 -96 87 -115
102 -41 31 -34 49 19 49 31 0 40 4 44 21 5 17 11 20 32 17 33 -7 40 5 20 35
-21 32 -11 38 37 21 87 -30 78 -7 -22 58 -74 49 -94 68 -71 68 5 0 51 -20 102
-45 51 -25 102 -45 113 -45 19 0 18 2 -8 27 -33 30 -22 41 26 24 43 -15 58
-14 52 4 -4 9 2 18 16 23 18 7 -1 18 -112 67 -73 32 -139 64 -147 71 -27 24
12 27 70 5 67 -26 75 -26 27 0 -43 22 -48 36 -15 48 12 5 30 18 39 29 16 20
15 21 -30 44 -27 13 -49 31 -51 42 -3 17 2 18 44 14 45 -6 115 8 115 23 0 4
-51 6 -112 5 -95 -1 -113 1 -116 15 -2 11 9 19 35 27 37 12 133 93 133 113 0
14 -32 3 -99 -32 -92 -49 -113 -34 -66 50 14 23 25 45 25 47 0 13 -53 0 -77
-19z m-1908 -1827 c3 -5 -1 -10 -9 -10 -8 0 -18 5 -21 10 -3 6 1 10 9 10 8 0
18 -4 21 -10z m421 -35 c7 -18 -13 -45 -33 -45 -23 0 -28 31 -8 46 24 18 34
18 41 -1z m320 -189 c8 -34 1 -61 -15 -61 -23 0 -34 27 -22 58 13 33 29 35 37
3z m119 -53 c9 -32 23 -78 31 -102 28 -86 9 -95 -56 -25 -34 37 -41 50 -35 71
3 14 8 39 11 57 13 76 28 76 49 -1z m-300 -92 c3 -5 1 -12 -5 -16 -5 -3 -10 1
-10 9 0 18 6 21 15 7z"/>
<path d="M2820 8906 c0 -2 7 -7 16 -10 8 -3 12 -2 9 4 -6 10 -25 14 -25 6z"/>
<path d="M2385 6220 c27 -12 43 -12 25 0 -8 5 -22 9 -30 9 -10 0 -8 -3 5 -9z"/>
<path d="M2250 6192 c0 -5 7 -15 15 -22 8 -7 15 -8 15 -2 0 5 -7 15 -15 22 -8
7 -15 8 -15 2z"/>
<path d="M2332 6176 c30 -27 127 -66 161 -65 13 0 3 7 -28 18 -27 10 -75 30
-105 45 l-55 27 27 -25z"/>
<path d="M1225 6123 c-21 -15 -34 -28 -27 -31 7 -2 12 -10 12 -17 0 -7 11 -15
24 -17 21 -4 25 0 31 29 3 19 9 41 12 49 8 21 -8 17 -52 -13z"/>
<path d="M2415 6075 c22 -14 45 -25 50 -25 6 0 -10 11 -34 25 -56 32 -68 32
-16 0z"/>
<path d="M1353 6018 c-32 -34 -47 -88 -26 -95 6 -2 13 6 15 19 2 15 11 24 26
26 12 2 22 10 22 18 0 8 6 14 14 14 9 0 12 8 8 25 -6 33 -22 31 -59 -7z"/>
</g>
</svg>
